<?xml version="1.0" encoding="UTF-8" standalone="no"?>
<!-- Created with Inkscape (http://www.inkscape.org/) -->

<svg
   width="210mm"
   height="210mm"
   viewBox="0 0 210 210"
   version="1.1"
   id="svg5"
   inkscape:version="1.2.2 (b0a8486541, 2022-12-01)"
   sodipodi:docname="frik-frak-online-logo.svg"
   xmlns:inkscape="http://www.inkscape.org/namespaces/inkscape"
   xmlns:sodipodi="http://sodipodi.sourceforge.net/DTD/sodipodi-0.dtd"
   xmlns="http://www.w3.org/2000/svg"
   xmlns:svg="http://www.w3.org/2000/svg">
  <sodipodi:namedview
     id="namedview7"
     pagecolor="#ffffff"
     bordercolor="#000000"
     borderopacity="0.25"
     inkscape:showpageshadow="2"
     inkscape:pageopacity="0.0"
     inkscape:pagecheckerboard="0"
     inkscape:deskcolor="#d1d1d1"
     inkscape:document-units="mm"
     showgrid="false"
     inkscape:zoom="0.3497479"
     inkscape:cx="501.79"
     inkscape:cy="251.6098"
     inkscape:window-width="1498"
     inkscape:window-height="902"
     inkscape:window-x="0"
     inkscape:window-y="26"
     inkscape:window-maximized="1"
     inkscape:current-layer="layer1" />
  <defs
     id="defs2" />
  <g
     inkscape:label="Camada 1"
     inkscape:groupmode="layer"
     id="layer1">
    <path
       style="fill:#313801;fill-rule:evenodd;stroke:#1b281f;stroke-width:5.36;stroke-linecap:round;stroke-dasharray:none;stroke-opacity:0.25;fill-opacity:1"
       d="m 107.99203,113.40435 v 43.90792 43.90739 l 30.9485,0.20206 c 17.02153,0.111 36.76121,0.28146 43.86606,0.37879 l 12.91807,0.17673 -36.95485,-37.24889 c -20.32514,-20.48699 -40.06482,-40.41615 -43.86606,-44.2867 z"
       id="path8831" />
    <path
       style="fill:#e3cfb1;fill-rule:evenodd;stroke:#1b281f;stroke-width:5.36;stroke-linecap:round;stroke-dasharray:none;stroke-opacity:0.25;fill-opacity:1"
       d="m 100.57956,113.40035 -34.517268,34.46663 c -18.98442,18.95647 -38.5366,38.71954 -43.44904,43.91774 l -8.93175,9.4511 h 43.44903 43.449028 v -43.91773 z"
       id="path8829" />
    <path
       style="fill:#be7643;fill-rule:evenodd;stroke:#1b281f;stroke-width:5.36;stroke-linecap:round;stroke-dasharray:none;stroke-opacity:0.25;fill-opacity:1"
       d="m 112.81034,108.45079 43.3648,43.4299 43.36479,43.42991 0.19121,-42.74313 c 0.10526,-23.50882 0.008,-42.92766 -0.21705,-43.1524 -0.22474,-0.22475 -19.82495,-0.53345 -43.55599,-0.68627 z"
       id="path8825" />
    <path
       style="fill:#be7643;fill-rule:evenodd;stroke:#1b281f;stroke-width:5.36;stroke-linecap:round;stroke-dasharray:none;stroke-opacity:0.25;fill-opacity:1"
       d="m 8.2906122,14.647724 -0.21652,40.478154 c -0.11904,22.26296 -0.0149,41.89561 0.23099,43.62834 l 0.447,3.150712 H 52.527712 96.303336 L 52.297232,58.276068 Z"
       id="path8823" />
    <path
       style="fill:#231710;fill-rule:evenodd;stroke:#1b281f;stroke-width:5.36;stroke-linecap:round;stroke-dasharray:none;stroke-opacity:0.25;fill-opacity:1"
       d="m 200.28097,14.063781 -44.10583,43.980257 -44.10584,43.980782 8.52455,-0.42736 c 4.68856,-0.23504 24.41343,-0.42888 43.83298,-0.43047 l 35.30844,-0.004 0.51366,-33.542652 c 0.28272,-18.44848 0.40594,-38.045828 0.27337,-43.549796 z"
       id="path8821" />
    <path
       style="fill:#313801;fill-opacity:1;fill-rule:evenodd;stroke:#1b281f;stroke-width:5.36;stroke-linecap:round;stroke-dasharray:none;stroke-opacity:0.25"
       d="m 12.578294,9.4547059 h 43.90792 43.907386 l 0.20206,30.9485001 c 0.111,17.02153 0.28146,36.76121 0.37879,43.86606 l 0.17673,12.91807 -37.248886,-36.95485 c -20.48699,-20.32514 -40.41615,-40.06482 -44.2867,-43.86606 z"
       id="path9730" />
    <path
       style="display:inline;fill:#e3cfb1;fill-opacity:1;fill-rule:evenodd;stroke:#1b281f;stroke-width:5.36;stroke-linecap:round;stroke-dasharray:none;stroke-opacity:0.25"
       d="m 108.18416,97.148132 34.51726,-34.46663 c 18.98442,-18.95647 38.5366,-38.71954 43.44904,-43.91774 l 8.93175,-9.4511004 H 151.63318 108.18416 V 53.230392 Z"
       id="path9732" />
    <path
       style="display:inline;fill:#231710;fill-opacity:1;fill-rule:evenodd;stroke:#1b281f;stroke-width:5.36;stroke-linecap:round;stroke-dasharray:none;stroke-opacity:0.25"
       d="m 7.0991043,196.98488 44.1058297,-43.98027 44.10584,-43.98078 -8.52455,0.42736 c -4.68856,0.23504 -24.41343,0.42888 -43.83298,0.43047 l -35.3084397,0.004 -0.51366,33.54265 c -0.28272,18.44848 -0.40594,38.04584 -0.27337,43.54981 z"
       id="path9734" />
  </g>
</svg>
